<?xml version="1.0" encoding="utf-8"?>
<!-- Generator: Adobe Illustrator 18.1.1, SVG Export Plug-In . SVG Version: 6.00 Build 0)  -->
<svg version="1.1" id="Layer_1" xmlns="http://www.w3.org/2000/svg" xmlns:xlink="http://www.w3.org/1999/xlink" x="0px" y="0px"
	 viewBox="0 0 1152 1152" enable-background="new 0 0 1152 1152" xml:space="preserve">
<g>
	<polygon fill="#FFFFFF" points="499.5,565.4 359.1,510.2 499.5,456 499.5,398.9 297.9,486.2 297.9,534.8 499.5,622.1 	"/>
	<path fill="#FFFFFF" d="M544.3,660.5c5.6,0,9.7-1.1,12.6-3.6c2.7-2.4,5-5.8,6.3-10.3c1.4-4.3,3.2-10.3,5-18l56-231.1
		c2.9-10.8,4.2-18.4,4.5-22.6c0-5.6-1.8-10.1-5.4-13.3c-3.6-3.1-8.5-4.7-15.3-4.7c-7.9,0-13.1,2.3-15.8,6.8
		c-2.4,4.5-5.4,12.8-8.3,25.2l-56,231.1c-2.7,12.2-4.1,19.8-4.1,23C523.8,654.7,530.6,660.5,544.3,660.5z"/>
	<polygon fill="#FFFFFF" points="854.1,486.7 652.5,399.6 652.5,455.8 793.3,510.3 652.5,565.6 652.5,622.3 854.1,534.5 	"/>
	<path fill="#FFFFFF" d="M983.9,73.1H168.1c-30.6,0-55.6,25-55.6,55.6v704.5c0,30.6,25,55.6,55.6,55.6h815.8
		c30.8,0,55.6-25,55.6-55.6V128.6C1039.5,98,1014.5,73.1,983.9,73.1z M946.8,110.3c20.5,0,37.1,16.6,37.1,37.1
		c0,20.4-16.6,37.1-37.1,37.1s-37.1-16.6-37.1-37.1C909.7,126.9,926.4,110.3,946.8,110.3z M844.9,110.2c20.5,0,37.1,16.6,37.1,37.1
		c0,20.5-16.7,37.1-37.1,37.1s-37.1-16.6-37.1-37.1C807.8,126.8,824.4,110.2,844.9,110.2z M743,110.2c20.5,0,37.1,16.6,37.1,37.1
		c0,20.5-16.7,37.1-37.1,37.1c-20.5,0-37.1-16.6-37.1-37.1C705.9,126.8,722.5,110.2,743,110.2z M983.9,833.3H168.1v-612h815.8V833.3
		z"/>
</g>
</svg>
