<svg viewBox="0 0 100 100" xmlns="http://www.w3.org/2000/svg"><defs> <symbol viewBox="0 0 512 512" id="svg-defs-svg-defs-svg-defs-svg-defs-svg-defs-svg-defs-svg-defs-svg-defs-shape-camera"><title>camera</title><path d="M430.4,147h-67.5l-40.4-40.8c0,0-0.2-0.2-0.3-0.2l-0.2-0.2v0c-6-6-14.1-9.8-23.3-9.8h-84c-9.8,0-18.5,4.2-24.6,10.9l0,0.1
		l-39.5,40H81.6C63,147,48,161.6,48,180.2v202.1c0,18.6,15,33.7,33.6,33.7h348.8c18.5,0,33.6-15.1,33.6-33.7V180.2
		C464,161.6,448.9,147,430.4,147z M256,365.5c-50.9,0-92.4-41.6-92.4-92.6c0-51.1,41.5-92.6,92.4-92.6c51,0,92.4,41.5,92.4,92.6
		C348.4,323.9,307,365.5,256,365.5z M424.1,200.5c-7.7,0-14-6.3-14-14.1s6.3-14.1,14-14.1c7.7,0,14,6.3,14,14.1
		S431.8,200.5,424.1,200.5z"/> <path d="M256,202.9c-38.6,0-69.8,31.3-69.8,70c0,38.6,31.2,70,69.8,70c38.5,0,69.8-31.3,69.8-70C325.8,234.2,294.5,202.9,256,202.9
		z"/></symbol><symbol viewBox="-319 321 512 512" id="svg-defs-svg-defs-svg-defs-svg-defs-svg-defs-svg-defs-svg-defs-svg-defs-shape-code"><title>code</title><path fill="#FFFFFF" d="M-97,614.5v25.2l-89.6-38.8v-21.6l89.6-38.8v25.4l-62.4,24.1L-97,614.5z"/> <path fill="#FFFFFF" d="M-41.6,539.9l-24.9,102.7c-0.8,3.4-1.6,6.1-2.2,8c-0.6,2-1.6,3.5-2.8,4.6c-1.3,1.1-3.1,1.6-5.6,1.6
			c-6.1,0-9.1-2.6-9.1-7.8c0-1.4,0.6-4.8,1.8-10.2l24.9-102.7c1.3-5.5,2.6-9.2,3.7-11.2c1.2-2,3.5-3,7-3c3,0,5.2,0.7,6.8,2.1
			c1.6,1.4,2.4,3.4,2.4,5.9C-39.7,531.7-40.3,535.1-41.6,539.9z"/> <path fill="#FFFFFF" d="M60.6,600.8l-89.6,39v-25.2l62.6-24.6L-29,565.8v-25l89.6,38.7V600.8z"/> <path fill="#FFFFFF" d="M118.3,395.7h-362.6c-13.6,0-24.7,11.1-24.7,24.7v313.1c0,13.6,11.1,24.7,24.7,24.7h362.6
		c13.7,0,24.7-11.1,24.7-24.7V420.4C143,406.8,131.9,395.7,118.3,395.7z M56.5,412.2c9.1,0,16.5,7.4,16.5,16.5
		c0,9.1-7.4,16.5-16.5,16.5c-9.1,0-16.5-7.4-16.5-16.5C40,419.6,47.4,412.2,56.5,412.2z M11.2,412.2c9.1,0,16.5,7.4,16.5,16.5
		c0,9.1-7.4,16.5-16.5,16.5c-9.1,0-16.5-7.4-16.5-16.5C-5.3,419.6,2.1,412.2,11.2,412.2z M118.3,733.6h-362.6V461.6h362.6
		L118.3,733.6L118.3,733.6z M101.8,445.2c-9.1,0-16.5-7.4-16.5-16.5c0-9.1,7.4-16.5,16.5-16.5s16.5,7.4,16.5,16.5
		C118.3,437.8,110.9,445.2,101.8,445.2z"/> </symbol><symbol viewBox="0 0 1152 1152" id="svg-defs-svg-defs-svg-defs-svg-defs-svg-defs-svg-defs-svg-defs-svg-defs-shape-menu"><title>menu</title> <g> <rect x="168" y="248" fill="#FFFFFF" width="816" height="134"/> <circle fill="#FFFFFF" cx="168" cy="315" r="67"/> <circle fill="#FFFFFF" cx="976" cy="315" r="67"/> </g> <g> <rect x="172" y="524" fill="#FFFFFF" width="816" height="134"/> <circle fill="#FFFFFF" cx="172" cy="591" r="67"/> <circle fill="#FFFFFF" cx="980" cy="591" r="67"/> </g> <g> <rect x="172" y="801" fill="#FFFFFF" width="816" height="134"/> <circle fill="#FFFFFF" cx="172" cy="868" r="67"/> <circle fill="#FFFFFF" cx="980" cy="868" r="67"/> </g> </symbol><symbol viewBox="0 0 1152 1152" id="svg-defs-svg-defs-svg-defs-svg-defs-svg-defs-svg-defs-svg-defs-svg-defs-shape-pencil"><title>pencil</title> <polyline fill="none" stroke="#231F20" stroke-width="27" points="343.7,699.3 324,828 453.7,808.7 "/> <line fill="none" stroke="#231F20" stroke-width="27" x1="332.5" y1="801.5" x2="359" y2="828"/> <line fill="none" stroke="#231F20" stroke-width="27" x1="775.4" y1="377" x2="401.9" y2="750.5"/> <g> <path fill="#231F20" d="M713.3,352.8l87,87L456,784.1l-87-87L713.3,352.8 M713.3,314.6L330.8,697.1L456,822.3l382.5-382.5
		L713.3,314.6L713.3,314.6z"/> </g> </symbol><symbol viewBox="0 0 100 100" id="svg-defs-svg-defs-svg-defs-svg-defs-svg-defs-svg-defs-svg-defs-svg-defs-shape-svg-defs"><title>menu</title><symbol viewBox="0 0 1152 1152" id="svg-defs-svg-defs-svg-defs-svg-defs-svg-defs-svg-defs-svg-defs-svg-defs-svg-defs-shape-menu"> <g> <rect x="168" y="248" fill="#FFFFFF" width="816" height="134"/> <circle fill="#FFFFFF" cx="168" cy="315" r="67"/> <circle fill="#FFFFFF" cx="976" cy="315" r="67"/> </g> <g> <rect x="172" y="524" fill="#F05D80" width="816" height="134"/> <circle fill="#F05D80" cx="172" cy="591" r="67"/> <circle fill="#F05D80" cx="980" cy="591" r="67"/> </g> <g> <rect x="172" y="801" fill="#FFFFFF" width="816" height="134"/> <circle fill="#FFFFFF" cx="172" cy="868" r="67"/> <circle fill="#FFFFFF" cx="980" cy="868" r="67"/> </g> </symbol></symbol></defs><symbol viewBox="0 0 1152 1152" id="shape-camera"><title>camera</title> <g> <path fill="#FFFFFF" d="M968.4,302.8H816.5L725.6,211c0,0-0.5-0.5-0.7-0.5l-0.5-0.5c-13.5-13.5-31.7-22-52.4-22h-189
		c-22,0-41.6,9.5-55.4,24.5v0.2l-88.9,90H183.6c-41.8,0-75.6,32.9-75.6,74.7v454.7c0,41.8,33.8,75.8,75.6,75.8h784.8
		c41.6,0,75.6-34,75.6-75.8V377.5C1044,335.6,1010,302.8,968.4,302.8z M576,794.4c-114.5,0-207.9-93.6-207.9-208.3
		c0-115,93.4-208.3,207.9-208.3c114.8,0,207.9,93.4,207.9,208.3C783.9,700.8,690.8,794.4,576,794.4z M954.2,423.1
		c-17.3,0-31.5-14.2-31.5-31.7c0-17.5,14.2-31.7,31.5-31.7c17.3,0,31.5,14.2,31.5,31.7C985.7,409,971.5,423.1,954.2,423.1z"/> <path fill="#FFFFFF" d="M576,428.5c-86.9,0-157.1,70.4-157.1,157.5c0,86.8,70.2,157.5,157.1,157.5c86.6,0,157-70.4,157-157.5
		S662.6,428.5,576,428.5z"/> </g> </symbol><symbol viewBox="0 0 1152 1152" id="shape-code"><title>code</title> <g> <polygon fill="#FFFFFF" points="496.8,648.8 350.9,591.4 496.8,535.1 496.8,475.7 287.2,566.5 287.2,617 496.8,707.7 	"/> <path fill="#FFFFFF" d="M543.3,747.6c5.8,0,10.1-1.1,13.1-3.7c2.8-2.5,5.2-6,6.5-10.7c1.5-4.5,3.3-10.7,5.2-18.7l58.2-240.2
		c3-11.2,4.4-19.1,4.7-23.5c0-5.8-1.9-10.5-5.6-13.8c-3.7-3.2-8.8-4.9-15.9-4.9c-8.2,0-13.6,2.4-16.4,7.1
		c-2.5,4.7-5.6,13.3-8.6,26.2l-58.2,240.2c-2.8,12.7-4.3,20.6-4.3,23.9C522,741.6,529.1,747.6,543.3,747.6z"/> <polygon fill="#FFFFFF" points="865.3,567 655.8,476.5 655.8,534.9 802.1,591.5 655.8,649 655.8,707.9 865.3,616.7 	"/> <path fill="#FFFFFF" d="M1000.2,137.2H152.4c-31.8,0-57.8,26-57.8,57.8v732.1c0,31.8,26,57.8,57.8,57.8h847.8
		c32,0,57.8-26,57.8-57.8V194.8C1057.9,163,1032,137.2,1000.2,137.2z M961.6,175.8c21.3,0,38.6,17.3,38.6,38.6
		c0,21.2-17.3,38.6-38.6,38.6c-21.3,0-38.6-17.3-38.6-38.6C923.1,193.1,940.4,175.8,961.6,175.8z M855.7,175.7
		c21.3,0,38.6,17.3,38.6,38.6s-17.4,38.6-38.6,38.6s-38.6-17.3-38.6-38.6C817.2,193,834.4,175.7,855.7,175.7z M749.8,175.7
		c21.3,0,38.6,17.3,38.6,38.6s-17.4,38.6-38.6,38.6c-21.3,0-38.6-17.3-38.6-38.6S728.5,175.7,749.8,175.7z M1000.2,927.2H152.4v-636
		h847.8V927.2z"/> </g> </symbol><symbol viewBox="-335 337 480 480" id="shape-home"><title>home</title> <g id="home-home"> <path fill="#FFFFFF" d="M65.3,605.3c-2.7,2.9-7.4,3.1-10.3,0.3L-94.3,466.2c-2.9-2.7-7.7-2.7-10.7,0l-145.6,135.8
		c-2.9,2.7-7.6,2.6-10.3-0.4l-14.9-16c-2.7-2.9-2.6-7.6,0.4-10.3l170.5-159c2.9-2.7,7.7-2.7,10.7,0L79.9,579
		c2.9,2.7,3.1,7.4,0.3,10.3L65.3,605.3z"/> <path fill="#FFFFFF" d="M-99.7,491.3l-122.8,114.4v118.6c0,4,3.3,7.3,7.4,7.3h80.7V628.9c0-4,3.3-7.3,7.4-7.3h58.8
		c4,0,7.3,3.3,7.3,7.3v102.9H20c4,0,7.3-3.3,7.3-7.3V610L-99.7,491.3z"/> <path fill="#FFFFFF" d="M26.9,431.6c0-4-3.3-7.4-7.4-7.4h-44.1c-4,0-7.3,3.3-7.3,7.4v12.8l58.8,55.3L26.9,431.6L26.9,431.6z"/> </g> </symbol><symbol viewBox="0 0 1152 1152" id="shape-mail"><title>mail</title> <path fill="#FFFFFF" d="M998,887.5V478.6c-11.4,12.8-23.6,24.5-36.7,35.1c-95.1,73.1-170.7,133.1-226.8,180
	c-18.1,15.3-32.8,27.2-44.2,35.7c-11.4,8.5-26.7,17.1-46.1,25.9c-19.4,8.8-37.5,13.1-54.6,13.1h-1c-17.1,0-35.2-4.4-54.6-13.1
	c-19.4-8.7-34.7-17.3-46.1-25.9c-11.4-8.6-26.1-20.4-44.2-35.7c-56.1-46.9-131.7-106.9-226.8-180c-13.2-10.7-25.4-22.3-36.7-35.1
	v408.9c0,4.6,1.7,8.6,5.1,12c3.3,3.3,7.3,5.1,12,5.1H981c4.6,0,8.6-1.7,12-5.1C996.3,896.1,998,892.1,998,887.5L998,887.5z
	 M998,327.9v-13.1c0,0-0.1-2.3-0.3-7s-0.7-6.9-1.6-6.7c-0.9,0.2-1.9-1.4-3-4.8c-1-3.3-2.7-4.7-4.8-4s-4.6,0.3-7.4-1.3H197.2
	c-4.6,0-8.6,1.7-12,5.1c-3.3,3.3-5.1,7.3-5.1,12c0,59.6,26.1,110,78.2,151.2c68.5,53.9,139.7,110.2,213.6,168.8
	c2.1,1.8,8.3,7,18.6,15.7c10.3,8.7,18.4,15.4,24.5,19.9c6,4.6,13.9,10.2,23.7,16.8s18.7,11.5,26.9,14.6c8.2,3.1,15.8,4.8,22.9,4.8h1
	c7.1,0,14.7-1.6,22.9-4.8c8.2-3.1,17.1-8.1,26.9-14.6c9.7-6.6,17.7-12.1,23.7-16.8c6-4.6,14.2-11.3,24.5-19.9
	c10.3-8.7,16.5-13.9,18.6-15.7c73.9-58.6,145-114.8,213.6-168.8c19.2-15.3,37-35.8,53.5-61.5C989.8,372.1,998,348.9,998,327.9
	L998,327.9z M1066.2,308.2v579.3c0,23.5-8.3,43.5-25,60.2s-36.7,25-60.2,25H197.2c-23.5,0-43.5-8.3-60.2-25s-25-36.8-25-60.2V308.2
	c0-23.5,8.3-43.5,25-60.2s36.7-25,60.2-25H981c23.5,0,43.5,8.3,60.2,25S1066.2,284.7,1066.2,308.2z"/> </symbol><symbol viewBox="0 0 1152 1152" id="shape-menu"><title>menu</title> <g> <rect x="168" y="248" fill="#FFFFFF" width="816" height="134"/> <circle fill="#FFFFFF" cx="168" cy="315" r="67"/> <circle fill="#FFFFFF" cx="976" cy="315" r="67"/> </g> <g> <rect x="172" y="524" fill="#FFFFFF" width="816" height="134"/> <circle fill="#FFFFFF" cx="172" cy="591" r="67"/> <circle fill="#FFFFFF" cx="980" cy="591" r="67"/> </g> <g> <rect x="172" y="801" fill="#FFFFFF" width="816" height="134"/> <circle fill="#FFFFFF" cx="172" cy="868" r="67"/> <circle fill="#FFFFFF" cx="980" cy="868" r="67"/> </g> </symbol><symbol viewBox="0 0 1152 1152" id="shape-pencil"><title>pencil</title> <path fill="#FFFFFF" d="M373.3,917.2l618.9-618.9l-86-86l0.3-0.3l-30.9-30.9l-0.3,0.3l-85.7-85.7l-619,619.4l0.3,0.3l-0.6-0.2
	L133.9,953L373,917.4l0,0l0,0L373.3,917.2L373.3,917.2z M930.3,298.3L372.8,855.7l-54.9-54.9l557.5-557.3L930.3,298.3z M789.7,157.7
	l54.7,54.7L287,769.8l-54.7-54.7L789.7,157.7z M217,896.5l-26.2-26.2l18-116.9L334.4,879L217,896.5z"/> </symbol><symbol viewBox="0 0 100 100" id="shape-svg-defs"><title>camera</title><symbol viewBox="0 0 1152 1152" id="svg-defs-shape-camera"> <g> <path fill="#FFFFFF" d="M968.4,302.8H816.5L725.6,211c0,0-0.5-0.5-0.7-0.5l-0.5-0.5c-13.5-13.5-31.7-22-52.4-22h-189
		c-22,0-41.6,9.5-55.4,24.5v0.2l-88.9,90H183.6c-41.8,0-75.6,32.9-75.6,74.7v454.7c0,41.8,33.8,75.8,75.6,75.8h784.8
		c41.6,0,75.6-34,75.6-75.8V377.5C1044,335.6,1010,302.8,968.4,302.8z M576,794.4c-114.5,0-207.9-93.6-207.9-208.3
		c0-115,93.4-208.3,207.9-208.3c114.8,0,207.9,93.4,207.9,208.3C783.9,700.8,690.8,794.4,576,794.4z M954.2,423.1
		c-17.3,0-31.5-14.2-31.5-31.7c0-17.5,14.2-31.7,31.5-31.7c17.3,0,31.5,14.2,31.5,31.7C985.7,409,971.5,423.1,954.2,423.1z"/> <path fill="#FFFFFF" d="M576,428.5c-86.9,0-157.1,70.4-157.1,157.5c0,86.8,70.2,157.5,157.1,157.5c86.6,0,157-70.4,157-157.5
		S662.6,428.5,576,428.5z"/> </g> </symbol><symbol viewBox="0 0 1152 1152" id="svg-defs-shape-code"> <g> <polygon fill="#FFFFFF" points="496.8,648.8 350.9,591.4 496.8,535.1 496.8,475.7 287.2,566.5 287.2,617 496.8,707.7 	"/> <path fill="#FFFFFF" d="M543.3,747.6c5.8,0,10.1-1.1,13.1-3.7c2.8-2.5,5.2-6,6.5-10.7c1.5-4.5,3.3-10.7,5.2-18.7l58.2-240.2
		c3-11.2,4.4-19.1,4.7-23.5c0-5.8-1.9-10.5-5.6-13.8c-3.7-3.2-8.8-4.9-15.9-4.9c-8.2,0-13.6,2.4-16.4,7.1
		c-2.5,4.7-5.6,13.3-8.6,26.2l-58.2,240.2c-2.8,12.7-4.3,20.6-4.3,23.9C522,741.6,529.1,747.6,543.3,747.6z"/> <polygon fill="#FFFFFF" points="865.3,567 655.8,476.5 655.8,534.9 802.1,591.5 655.8,649 655.8,707.9 865.3,616.7 	"/> <path fill="#FFFFFF" d="M1000.2,137.2H152.4c-31.8,0-57.8,26-57.8,57.8v732.1c0,31.8,26,57.8,57.8,57.8h847.8
		c32,0,57.8-26,57.8-57.8V194.8C1057.9,163,1032,137.2,1000.2,137.2z M961.6,175.8c21.3,0,38.6,17.3,38.6,38.6
		c0,21.2-17.3,38.6-38.6,38.6c-21.3,0-38.6-17.3-38.6-38.6C923.1,193.1,940.4,175.8,961.6,175.8z M855.7,175.7
		c21.3,0,38.6,17.3,38.6,38.6s-17.4,38.6-38.6,38.6s-38.6-17.3-38.6-38.6C817.2,193,834.4,175.7,855.7,175.7z M749.8,175.7
		c21.3,0,38.6,17.3,38.6,38.6s-17.4,38.6-38.6,38.6c-21.3,0-38.6-17.3-38.6-38.6S728.5,175.7,749.8,175.7z M1000.2,927.2H152.4v-636
		h847.8V927.2z"/> </g> </symbol><symbol viewBox="-335 337 480 480" id="svg-defs-shape-home"> <g id="svg-defs-home-home"> <path fill="#FFFFFF" d="M65.3,605.3c-2.7,2.9-7.4,3.1-10.3,0.3L-94.3,466.2c-2.9-2.7-7.7-2.7-10.7,0l-145.6,135.8
		c-2.9,2.7-7.6,2.6-10.3-0.4l-14.9-16c-2.7-2.9-2.6-7.6,0.4-10.3l170.5-159c2.9-2.7,7.7-2.7,10.7,0L79.9,579
		c2.9,2.7,3.1,7.4,0.3,10.3L65.3,605.3z"/> <path fill="#FFFFFF" d="M-99.7,491.3l-122.8,114.4v118.6c0,4,3.3,7.3,7.4,7.3h80.7V628.9c0-4,3.3-7.3,7.4-7.3h58.8
		c4,0,7.3,3.3,7.3,7.3v102.9H20c4,0,7.3-3.3,7.3-7.3V610L-99.7,491.3z"/> <path fill="#FFFFFF" d="M26.9,431.6c0-4-3.3-7.4-7.4-7.4h-44.1c-4,0-7.3,3.3-7.3,7.4v12.8l58.8,55.3L26.9,431.6L26.9,431.6z"/> </g> </symbol><symbol viewBox="0 0 1152 1152" id="svg-defs-shape-mail"> <path fill="#FFFFFF" d="M998,887.5V478.6c-11.4,12.8-23.6,24.5-36.7,35.1c-95.1,73.1-170.7,133.1-226.8,180
	c-18.1,15.3-32.8,27.2-44.2,35.7c-11.4,8.5-26.7,17.1-46.1,25.9c-19.4,8.8-37.5,13.1-54.6,13.1h-1c-17.1,0-35.2-4.4-54.6-13.1
	c-19.4-8.7-34.7-17.3-46.1-25.9c-11.4-8.6-26.1-20.4-44.2-35.7c-56.1-46.9-131.7-106.9-226.8-180c-13.2-10.7-25.4-22.3-36.7-35.1
	v408.9c0,4.6,1.7,8.6,5.1,12c3.3,3.3,7.3,5.1,12,5.1H981c4.6,0,8.6-1.7,12-5.1C996.3,896.1,998,892.1,998,887.5L998,887.5z
	 M998,327.9v-13.1c0,0-0.1-2.3-0.3-7s-0.7-6.9-1.6-6.7c-0.9,0.2-1.9-1.4-3-4.8c-1-3.3-2.7-4.7-4.8-4s-4.6,0.3-7.4-1.3H197.2
	c-4.6,0-8.6,1.7-12,5.1c-3.3,3.3-5.1,7.3-5.1,12c0,59.6,26.1,110,78.2,151.2c68.5,53.9,139.7,110.2,213.6,168.8
	c2.1,1.8,8.3,7,18.6,15.7c10.3,8.7,18.4,15.4,24.5,19.9c6,4.6,13.9,10.2,23.7,16.8s18.7,11.5,26.9,14.6c8.2,3.1,15.8,4.8,22.9,4.8h1
	c7.1,0,14.7-1.6,22.9-4.8c8.2-3.1,17.1-8.1,26.9-14.6c9.7-6.6,17.7-12.1,23.7-16.8c6-4.6,14.2-11.3,24.5-19.9
	c10.3-8.7,16.5-13.9,18.6-15.7c73.9-58.6,145-114.8,213.6-168.8c19.2-15.3,37-35.8,53.5-61.5C989.8,372.1,998,348.9,998,327.9
	L998,327.9z M1066.2,308.2v579.3c0,23.5-8.3,43.5-25,60.2s-36.7,25-60.2,25H197.2c-23.5,0-43.5-8.3-60.2-25s-25-36.8-25-60.2V308.2
	c0-23.5,8.3-43.5,25-60.2s36.7-25,60.2-25H981c23.5,0,43.5,8.3,60.2,25S1066.2,284.7,1066.2,308.2z"/> </symbol><symbol viewBox="0 0 1152 1152" id="svg-defs-shape-menu"> <g> <rect x="168" y="248" fill="#FFFFFF" width="816" height="134"/> <circle fill="#FFFFFF" cx="168" cy="315" r="67"/> <circle fill="#FFFFFF" cx="976" cy="315" r="67"/> </g> <g> <rect x="172" y="524" fill="#FFFFFF" width="816" height="134"/> <circle fill="#FFFFFF" cx="172" cy="591" r="67"/> <circle fill="#FFFFFF" cx="980" cy="591" r="67"/> </g> <g> <rect x="172" y="801" fill="#FFFFFF" width="816" height="134"/> <circle fill="#FFFFFF" cx="172" cy="868" r="67"/> <circle fill="#FFFFFF" cx="980" cy="868" r="67"/> </g> </symbol><symbol viewBox="0 0 1152 1152" id="svg-defs-shape-pencil"> <path fill="#FFFFFF" d="M373.3,917.2l618.9-618.9l-86-86l0.3-0.3l-30.9-30.9l-0.3,0.3l-85.7-85.7l-619,619.4l0.3,0.3l-0.6-0.2
	L133.9,953L373,917.4l0,0l0,0L373.3,917.2L373.3,917.2z M930.3,298.3L372.8,855.7l-54.9-54.9l557.5-557.3L930.3,298.3z M789.7,157.7
	l54.7,54.7L287,769.8l-54.7-54.7L789.7,157.7z M217,896.5l-26.2-26.2l18-116.9L334.4,879L217,896.5z"/> </symbol><symbol viewBox="0 0 100 100" id="svg-defs-shape-svg-defs"><symbol viewBox="0 0 1152 1152" id="svg-defs-svg-defs-shape-camera"> <g> <path fill="#FFFFFF" d="M968.4,302.8H816.5L725.6,211c0,0-0.5-0.5-0.7-0.5l-0.5-0.5c-13.5-13.5-31.7-22-52.4-22h-189
		c-22,0-41.6,9.5-55.4,24.5v0.2l-88.9,90H183.6c-41.8,0-75.6,32.9-75.6,74.7v454.7c0,41.8,33.8,75.8,75.6,75.8h784.8
		c41.6,0,75.6-34,75.6-75.8V377.5C1044,335.6,1010,302.8,968.4,302.8z M576,794.4c-114.5,0-207.9-93.6-207.9-208.3
		c0-115,93.4-208.3,207.9-208.3c114.8,0,207.9,93.4,207.9,208.3C783.9,700.8,690.8,794.4,576,794.4z M954.2,423.1
		c-17.3,0-31.5-14.2-31.5-31.7c0-17.5,14.2-31.7,31.5-31.7c17.3,0,31.5,14.2,31.5,31.7C985.7,409,971.5,423.1,954.2,423.1z"/> <path fill="#FFFFFF" d="M576,428.5c-86.9,0-157.1,70.4-157.1,157.5c0,86.8,70.2,157.5,157.1,157.5c86.6,0,157-70.4,157-157.5
		S662.6,428.5,576,428.5z"/> </g> </symbol><symbol viewBox="0 0 1152 1152" id="svg-defs-svg-defs-shape-code"> <g> <polygon fill="#FFFFFF" points="499.5,565.4 359.1,510.2 499.5,456 499.5,398.9 297.9,486.2 297.9,534.8 499.5,622.1 	"/> <path fill="#FFFFFF" d="M544.3,660.5c5.6,0,9.7-1.1,12.6-3.6c2.7-2.4,5-5.8,6.3-10.3c1.4-4.3,3.2-10.3,5-18l56-231.1
		c2.9-10.8,4.2-18.4,4.5-22.6c0-5.6-1.8-10.1-5.4-13.3c-3.6-3.1-8.5-4.7-15.3-4.7c-7.9,0-13.1,2.3-15.8,6.8
		c-2.4,4.5-5.4,12.8-8.3,25.2l-56,231.1c-2.7,12.2-4.1,19.8-4.1,23C523.8,654.7,530.6,660.5,544.3,660.5z"/> <polygon fill="#FFFFFF" points="854.1,486.7 652.5,399.6 652.5,455.8 793.3,510.3 652.5,565.6 652.5,622.3 854.1,534.5 	"/> <path fill="#FFFFFF" d="M983.9,73.1H168.1c-30.6,0-55.6,25-55.6,55.6v704.5c0,30.6,25,55.6,55.6,55.6h815.8
		c30.8,0,55.6-25,55.6-55.6V128.6C1039.5,98,1014.5,73.1,983.9,73.1z M946.8,110.3c20.5,0,37.1,16.6,37.1,37.1
		c0,20.4-16.6,37.1-37.1,37.1s-37.1-16.6-37.1-37.1C909.7,126.9,926.4,110.3,946.8,110.3z M844.9,110.2c20.5,0,37.1,16.6,37.1,37.1
		c0,20.5-16.7,37.1-37.1,37.1s-37.1-16.6-37.1-37.1C807.8,126.8,824.4,110.2,844.9,110.2z M743,110.2c20.5,0,37.1,16.6,37.1,37.1
		c0,20.5-16.7,37.1-37.1,37.1c-20.5,0-37.1-16.6-37.1-37.1C705.9,126.8,722.5,110.2,743,110.2z M983.9,833.3H168.1v-612h815.8V833.3
		z"/> </g> </symbol><symbol viewBox="-335 337 480 480" id="svg-defs-svg-defs-shape-home"> <g id="svg-defs-svg-defs-home-home"> <path fill="#FFFFFF" d="M65.3,605.3c-2.7,2.9-7.4,3.1-10.3,0.3L-94.3,466.2c-2.9-2.7-7.7-2.7-10.7,0l-145.6,135.8
		c-2.9,2.7-7.6,2.6-10.3-0.4l-14.9-16c-2.7-2.9-2.6-7.6,0.4-10.3l170.5-159c2.9-2.7,7.7-2.7,10.7,0L79.9,579
		c2.9,2.7,3.1,7.4,0.3,10.3L65.3,605.3z"/> <path fill="#FFFFFF" d="M-99.7,491.3l-122.8,114.4v118.6c0,4,3.3,7.3,7.4,7.3h80.7V628.9c0-4,3.3-7.3,7.4-7.3h58.8
		c4,0,7.3,3.3,7.3,7.3v102.9H20c4,0,7.3-3.3,7.3-7.3V610L-99.7,491.3z"/> <path fill="#FFFFFF" d="M26.9,431.6c0-4-3.3-7.4-7.4-7.4h-44.1c-4,0-7.3,3.3-7.3,7.4v12.8l58.8,55.3L26.9,431.6L26.9,431.6z"/> </g> </symbol><symbol viewBox="0 0 1152 1152" id="svg-defs-svg-defs-shape-mail"> <path fill="#FFFFFF" d="M998,887.5V478.6c-11.4,12.8-23.6,24.5-36.7,35.1c-95.1,73.1-170.7,133.1-226.8,180
	c-18.1,15.3-32.8,27.2-44.2,35.7c-11.4,8.5-26.7,17.1-46.1,25.9c-19.4,8.8-37.5,13.1-54.6,13.1h-1c-17.1,0-35.2-4.4-54.6-13.1
	c-19.4-8.7-34.7-17.3-46.1-25.9c-11.4-8.6-26.1-20.4-44.2-35.7c-56.1-46.9-131.7-106.9-226.8-180c-13.2-10.7-25.4-22.3-36.7-35.1
	v408.9c0,4.6,1.7,8.6,5.1,12c3.3,3.3,7.3,5.1,12,5.1H981c4.6,0,8.6-1.7,12-5.1C996.3,896.1,998,892.1,998,887.5L998,887.5z
	 M998,327.9v-13.1c0,0-0.1-2.3-0.3-7s-0.7-6.9-1.6-6.7c-0.9,0.2-1.9-1.4-3-4.8c-1-3.3-2.7-4.7-4.8-4s-4.6,0.3-7.4-1.3H197.2
	c-4.6,0-8.6,1.7-12,5.1c-3.3,3.3-5.1,7.3-5.1,12c0,59.6,26.1,110,78.2,151.2c68.5,53.9,139.7,110.2,213.6,168.8
	c2.1,1.8,8.3,7,18.6,15.7c10.3,8.7,18.4,15.4,24.5,19.9c6,4.6,13.9,10.2,23.7,16.8s18.7,11.5,26.9,14.6c8.2,3.1,15.8,4.8,22.9,4.8h1
	c7.1,0,14.7-1.6,22.9-4.8c8.2-3.1,17.1-8.1,26.9-14.6c9.7-6.6,17.7-12.1,23.7-16.8c6-4.6,14.2-11.3,24.5-19.9
	c10.3-8.7,16.5-13.9,18.6-15.7c73.9-58.6,145-114.8,213.6-168.8c19.2-15.3,37-35.8,53.5-61.5C989.8,372.1,998,348.9,998,327.9
	L998,327.9z M1066.2,308.2v579.3c0,23.5-8.3,43.5-25,60.2s-36.7,25-60.2,25H197.2c-23.5,0-43.5-8.3-60.2-25s-25-36.8-25-60.2V308.2
	c0-23.5,8.3-43.5,25-60.2s36.7-25,60.2-25H981c23.5,0,43.5,8.3,60.2,25S1066.2,284.7,1066.2,308.2z"/> </symbol><symbol viewBox="0 0 1152 1152" id="svg-defs-svg-defs-shape-menu"> <g> <rect x="168" y="248" fill="#FFFFFF" width="816" height="134"/> <circle fill="#FFFFFF" cx="168" cy="315" r="67"/> <circle fill="#FFFFFF" cx="976" cy="315" r="67"/> </g> <g> <rect x="172" y="524" fill="#FFFFFF" width="816" height="134"/> <circle fill="#FFFFFF" cx="172" cy="591" r="67"/> <circle fill="#FFFFFF" cx="980" cy="591" r="67"/> </g> <g> <rect x="172" y="801" fill="#FFFFFF" width="816" height="134"/> <circle fill="#FFFFFF" cx="172" cy="868" r="67"/> <circle fill="#FFFFFF" cx="980" cy="868" r="67"/> </g> </symbol><symbol viewBox="0 0 1152 1152" id="svg-defs-svg-defs-shape-pencil"> <path fill="#FFFFFF" d="M373.3,917.2l618.9-618.9l-86-86l0.3-0.3l-30.9-30.9l-0.3,0.3l-85.7-85.7l-619,619.4l0.3,0.3l-0.6-0.2
	L133.9,953L373,917.4l0,0l0,0L373.3,917.2L373.3,917.2z M930.3,298.3L372.8,855.7l-54.9-54.9l557.5-557.3L930.3,298.3z M789.7,157.7
	l54.7,54.7L287,769.8l-54.7-54.7L789.7,157.7z M217,896.5l-26.2-26.2l18-116.9L334.4,879L217,896.5z"/> </symbol><symbol viewBox="0 0 100 100" id="svg-defs-svg-defs-shape-svg-defs"><symbol viewBox="0 0 1152 1152" id="svg-defs-svg-defs-svg-defs-shape-camera"> <g> <path fill="#FFFFFF" d="M968.4,302.8H816.5L725.6,211c0,0-0.5-0.5-0.7-0.5l-0.5-0.5c-13.5-13.5-31.7-22-52.4-22h-189
		c-22,0-41.6,9.5-55.4,24.5v0.2l-88.9,90H183.6c-41.8,0-75.6,32.9-75.6,74.7v454.7c0,41.8,33.8,75.8,75.6,75.8h784.8
		c41.6,0,75.6-34,75.6-75.8V377.5C1044,335.6,1010,302.8,968.4,302.8z M576,794.4c-114.5,0-207.9-93.6-207.9-208.3
		c0-115,93.4-208.3,207.9-208.3c114.8,0,207.9,93.4,207.9,208.3C783.9,700.8,690.8,794.4,576,794.4z M954.2,423.1
		c-17.3,0-31.5-14.2-31.5-31.7c0-17.5,14.2-31.7,31.5-31.7c17.3,0,31.5,14.2,31.5,31.7C985.7,409,971.5,423.1,954.2,423.1z"/> <path fill="#FFFFFF" d="M576,428.5c-86.9,0-157.1,70.4-157.1,157.5c0,86.8,70.2,157.5,157.1,157.5c86.6,0,157-70.4,157-157.5
		S662.6,428.5,576,428.5z"/> </g> </symbol><symbol viewBox="0 0 1152 1152" id="svg-defs-svg-defs-svg-defs-shape-code"> <g> <polygon fill="#FFFFFF" points="499.5,565.4 359.1,510.2 499.5,456 499.5,398.9 297.9,486.2 297.9,534.8 499.5,622.1 	"/> <path fill="#FFFFFF" d="M544.3,660.5c5.6,0,9.7-1.1,12.6-3.6c2.7-2.4,5-5.8,6.3-10.3c1.4-4.3,3.2-10.3,5-18l56-231.1
		c2.9-10.8,4.2-18.4,4.5-22.6c0-5.6-1.8-10.1-5.4-13.3c-3.6-3.1-8.5-4.7-15.3-4.7c-7.9,0-13.1,2.3-15.8,6.8
		c-2.4,4.5-5.4,12.8-8.3,25.2l-56,231.1c-2.7,12.2-4.1,19.8-4.1,23C523.8,654.7,530.6,660.5,544.3,660.5z"/> <polygon fill="#FFFFFF" points="854.1,486.7 652.5,399.6 652.5,455.8 793.3,510.3 652.5,565.6 652.5,622.3 854.1,534.5 	"/> <path fill="#FFFFFF" d="M983.9,73.1H168.1c-30.6,0-55.6,25-55.6,55.6v704.5c0,30.6,25,55.6,55.6,55.6h815.8
		c30.8,0,55.6-25,55.6-55.6V128.6C1039.5,98,1014.5,73.1,983.9,73.1z M946.8,110.3c20.5,0,37.1,16.6,37.1,37.1
		c0,20.4-16.6,37.1-37.1,37.1s-37.1-16.6-37.1-37.1C909.7,126.9,926.4,110.3,946.8,110.3z M844.9,110.2c20.5,0,37.1,16.6,37.1,37.1
		c0,20.5-16.7,37.1-37.1,37.1s-37.1-16.6-37.1-37.1C807.8,126.8,824.4,110.2,844.9,110.2z M743,110.2c20.5,0,37.1,16.6,37.1,37.1
		c0,20.5-16.7,37.1-37.1,37.1c-20.5,0-37.1-16.6-37.1-37.1C705.9,126.8,722.5,110.2,743,110.2z M983.9,833.3H168.1v-612h815.8V833.3
		z"/> </g> </symbol><symbol viewBox="-335 337 480 480" id="svg-defs-svg-defs-svg-defs-shape-home"> <g id="svg-defs-svg-defs-svg-defs-home-home"> <path fill="#FFFFFF" d="M65.3,605.3c-2.7,2.9-7.4,3.1-10.3,0.3L-94.3,466.2c-2.9-2.7-7.7-2.7-10.7,0l-145.6,135.8
		c-2.9,2.7-7.6,2.6-10.3-0.4l-14.9-16c-2.7-2.9-2.6-7.6,0.4-10.3l170.5-159c2.9-2.7,7.7-2.7,10.7,0L79.9,579
		c2.9,2.7,3.1,7.4,0.3,10.3L65.3,605.3z"/> <path fill="#FFFFFF" d="M-99.7,491.3l-122.8,114.4v118.6c0,4,3.3,7.3,7.4,7.3h80.7V628.9c0-4,3.3-7.3,7.4-7.3h58.8
		c4,0,7.3,3.3,7.3,7.3v102.9H20c4,0,7.3-3.3,7.3-7.3V610L-99.7,491.3z"/> <path fill="#FFFFFF" d="M26.9,431.6c0-4-3.3-7.4-7.4-7.4h-44.1c-4,0-7.3,3.3-7.3,7.4v12.8l58.8,55.3L26.9,431.6L26.9,431.6z"/> </g> </symbol><symbol viewBox="0 0 1152 1152" id="svg-defs-svg-defs-svg-defs-shape-mail"> <path fill="#FFFFFF" d="M998,887.5V478.6c-11.4,12.8-23.6,24.5-36.7,35.1c-95.1,73.1-170.7,133.1-226.8,180
	c-18.1,15.3-32.8,27.2-44.2,35.7c-11.4,8.5-26.7,17.1-46.1,25.9c-19.4,8.8-37.5,13.1-54.6,13.1h-1c-17.1,0-35.2-4.4-54.6-13.1
	c-19.4-8.7-34.7-17.3-46.1-25.9c-11.4-8.6-26.1-20.4-44.2-35.7c-56.1-46.9-131.7-106.9-226.8-180c-13.2-10.7-25.4-22.3-36.7-35.1
	v408.9c0,4.6,1.7,8.6,5.1,12c3.3,3.3,7.3,5.1,12,5.1H981c4.6,0,8.6-1.7,12-5.1C996.3,896.1,998,892.1,998,887.5L998,887.5z
	 M998,327.9v-13.1c0,0-0.1-2.3-0.3-7s-0.7-6.9-1.6-6.7c-0.9,0.2-1.9-1.4-3-4.8c-1-3.3-2.7-4.7-4.8-4s-4.6,0.3-7.4-1.3H197.2
	c-4.6,0-8.6,1.7-12,5.1c-3.3,3.3-5.1,7.3-5.1,12c0,59.6,26.1,110,78.2,151.2c68.5,53.9,139.7,110.2,213.6,168.8
	c2.1,1.8,8.3,7,18.6,15.7c10.3,8.7,18.4,15.4,24.5,19.9c6,4.6,13.9,10.2,23.7,16.8s18.7,11.5,26.9,14.6c8.2,3.1,15.8,4.8,22.9,4.8h1
	c7.1,0,14.7-1.6,22.9-4.8c8.2-3.1,17.1-8.1,26.9-14.6c9.7-6.6,17.7-12.1,23.7-16.8c6-4.6,14.2-11.3,24.5-19.9
	c10.3-8.7,16.5-13.9,18.6-15.7c73.9-58.6,145-114.8,213.6-168.8c19.2-15.3,37-35.8,53.5-61.5C989.8,372.1,998,348.9,998,327.9
	L998,327.9z M1066.2,308.2v579.3c0,23.5-8.3,43.5-25,60.2s-36.7,25-60.2,25H197.2c-23.5,0-43.5-8.3-60.2-25s-25-36.8-25-60.2V308.2
	c0-23.5,8.3-43.5,25-60.2s36.7-25,60.2-25H981c23.5,0,43.5,8.3,60.2,25S1066.2,284.7,1066.2,308.2z"/> </symbol><symbol viewBox="0 0 1152 1152" id="svg-defs-svg-defs-svg-defs-shape-menu"> <g> <rect x="168" y="248" fill="#FFFFFF" width="816" height="134"/> <circle fill="#FFFFFF" cx="168" cy="315" r="67"/> <circle fill="#FFFFFF" cx="976" cy="315" r="67"/> </g> <g> <rect x="172" y="524" fill="#FFFFFF" width="816" height="134"/> <circle fill="#FFFFFF" cx="172" cy="591" r="67"/> <circle fill="#FFFFFF" cx="980" cy="591" r="67"/> </g> <g> <rect x="172" y="801" fill="#FFFFFF" width="816" height="134"/> <circle fill="#FFFFFF" cx="172" cy="868" r="67"/> <circle fill="#FFFFFF" cx="980" cy="868" r="67"/> </g> </symbol><symbol viewBox="0 0 1152 1152" id="svg-defs-svg-defs-svg-defs-shape-pencil"> <path fill="#FFFFFF" d="M373.3,917.2l618.9-618.9l-86-86l0.3-0.3l-30.9-30.9l-0.3,0.3l-85.7-85.7l-619,619.4l0.3,0.3l-0.6-0.2
	L133.9,953L373,917.4l0,0l0,0L373.3,917.2L373.3,917.2z M930.3,298.3L372.8,855.7l-54.9-54.9l557.5-557.3L930.3,298.3z M789.7,157.7
	l54.7,54.7L287,769.8l-54.7-54.7L789.7,157.7z M217,896.5l-26.2-26.2l18-116.9L334.4,879L217,896.5z"/> </symbol><symbol viewBox="0 0 100 100" id="svg-defs-svg-defs-svg-defs-shape-svg-defs"><symbol viewBox="0 0 1152 1152" id="svg-defs-svg-defs-svg-defs-svg-defs-shape-camera"> <g> <path fill="#FFFFFF" d="M968.4,302.8H816.5L725.6,211c0,0-0.5-0.5-0.7-0.5l-0.5-0.5c-13.5-13.5-31.7-22-52.4-22h-189
		c-22,0-41.6,9.5-55.4,24.5v0.2l-88.9,90H183.6c-41.8,0-75.6,32.9-75.6,74.7v454.7c0,41.8,33.8,75.8,75.6,75.8h784.8
		c41.6,0,75.6-34,75.6-75.8V377.5C1044,335.6,1010,302.8,968.4,302.8z M576,794.4c-114.5,0-207.9-93.6-207.9-208.3
		c0-115,93.4-208.3,207.9-208.3c114.8,0,207.9,93.4,207.9,208.3C783.9,700.8,690.8,794.4,576,794.4z M954.2,423.1
		c-17.3,0-31.5-14.2-31.5-31.7c0-17.5,14.2-31.7,31.5-31.7c17.3,0,31.5,14.2,31.5,31.7C985.7,409,971.5,423.1,954.2,423.1z"/> <path fill="#FFFFFF" d="M576,428.5c-86.9,0-157.1,70.4-157.1,157.5c0,86.8,70.2,157.5,157.1,157.5c86.6,0,157-70.4,157-157.5
		S662.6,428.5,576,428.5z"/> </g> </symbol><symbol viewBox="0 0 1152 1152" id="svg-defs-svg-defs-svg-defs-svg-defs-shape-code"> <g> <polygon fill="#FFFFFF" points="499.5,565.4 359.1,510.2 499.5,456 499.5,398.9 297.9,486.2 297.9,534.8 499.5,622.1 	"/> <path fill="#FFFFFF" d="M544.3,660.5c5.6,0,9.7-1.1,12.6-3.6c2.7-2.4,5-5.8,6.3-10.3c1.4-4.3,3.2-10.3,5-18l56-231.1
		c2.9-10.8,4.2-18.4,4.5-22.6c0-5.6-1.8-10.1-5.4-13.3c-3.6-3.1-8.5-4.7-15.3-4.7c-7.9,0-13.1,2.3-15.8,6.8
		c-2.4,4.5-5.4,12.8-8.3,25.2l-56,231.1c-2.7,12.2-4.1,19.8-4.1,23C523.8,654.7,530.6,660.5,544.3,660.5z"/> <polygon fill="#FFFFFF" points="854.1,486.7 652.5,399.6 652.5,455.8 793.3,510.3 652.5,565.6 652.5,622.3 854.1,534.5 	"/> <path fill="#FFFFFF" d="M983.9,73.1H168.1c-30.6,0-55.6,25-55.6,55.6v704.5c0,30.6,25,55.6,55.6,55.6h815.8
		c30.8,0,55.6-25,55.6-55.6V128.6C1039.5,98,1014.5,73.1,983.9,73.1z M946.8,110.3c20.5,0,37.1,16.6,37.1,37.1
		c0,20.4-16.6,37.1-37.1,37.1s-37.1-16.6-37.1-37.1C909.7,126.9,926.4,110.3,946.8,110.3z M844.9,110.2c20.5,0,37.1,16.6,37.1,37.1
		c0,20.5-16.7,37.1-37.1,37.1s-37.1-16.6-37.1-37.1C807.8,126.8,824.4,110.2,844.9,110.2z M743,110.2c20.5,0,37.1,16.6,37.1,37.1
		c0,20.5-16.7,37.1-37.1,37.1c-20.5,0-37.1-16.6-37.1-37.1C705.9,126.8,722.5,110.2,743,110.2z M983.9,833.3H168.1v-612h815.8V833.3
		z"/> </g> </symbol><symbol viewBox="0 0 1152 1152" id="svg-defs-svg-defs-svg-defs-svg-defs-shape-menu"> <g> <rect x="168" y="248" fill="#FFFFFF" width="816" height="134"/> <circle fill="#FFFFFF" cx="168" cy="315" r="67"/> <circle fill="#FFFFFF" cx="976" cy="315" r="67"/> </g> <g> <rect x="172" y="524" fill="#FFFFFF" width="816" height="134"/> <circle fill="#FFFFFF" cx="172" cy="591" r="67"/> <circle fill="#FFFFFF" cx="980" cy="591" r="67"/> </g> <g> <rect x="172" y="801" fill="#FFFFFF" width="816" height="134"/> <circle fill="#FFFFFF" cx="172" cy="868" r="67"/> <circle fill="#FFFFFF" cx="980" cy="868" r="67"/> </g> </symbol><symbol viewBox="0 0 1152 1152" id="svg-defs-svg-defs-svg-defs-svg-defs-shape-pencil"> <path fill="#FFFFFF" d="M455.7,821.9l382.1-382.1l-53.1-53.1l0.2-0.2l-19.1-19.1l-0.2,0.2l-52.9-52.9L330.5,697.1l0.2,0.2l-0.4-0.1
	L307.9,844l147.6-22l0,0l0,0L455.7,821.9L455.7,821.9z M799.6,439.8L455.4,783.9L421.5,750l344.2-344.1L799.6,439.8z M712.8,353
	l33.8,33.8L402.4,730.9l-33.8-33.8L712.8,353z M359.2,809.1L343,792.9l11.1-72.2l77.6,77.6L359.2,809.1z"/> </symbol><symbol viewBox="0 0 100 100" id="svg-defs-svg-defs-svg-defs-svg-defs-shape-svg-defs"><symbol viewBox="-319 321 512 512" id="svg-defs-svg-defs-svg-defs-svg-defs-svg-defs-shape-camera"> <g> <path fill="#231F20" d="M111.4,468H43.9L3.5,427.2c0,0-0.2-0.2-0.3-0.2L3,426.8c-6-6-14.1-9.8-23.3-9.8h-84
		c-9.8,0-18.5,4.2-24.6,10.9v0.1l-39.5,40h-69c-18.6,0-33.6,14.6-33.6,33.2v202.1c0,18.6,15,33.7,33.6,33.7h348.8
		c18.5,0,33.6-15.1,33.6-33.7V501.2C145,482.6,129.9,468,111.4,468z M-63,686.5c-50.9,0-92.4-41.6-92.4-92.6
		c0-51.1,41.5-92.6,92.4-92.6c51,0,92.4,41.5,92.4,92.6C29.4,644.9-12,686.5-63,686.5z M105.1,521.5c-7.7,0-14-6.3-14-14.1
		c0-7.8,6.3-14.1,14-14.1s14,6.3,14,14.1C119.1,515.2,112.8,521.5,105.1,521.5z"/> <path d="M-63,523.9c-38.6,0-69.8,31.3-69.8,70c0,38.6,31.2,70,69.8,70c38.5,0,69.8-31.3,69.8-70C6.8,555.2-24.5,523.9-63,523.9z"/> </g> </symbol><symbol viewBox="0 0 1152 1152" id="svg-defs-svg-defs-svg-defs-svg-defs-svg-defs-shape-code"> <g> <polygon fill="#FFFFFF" points="499.5,565.4 359.1,510.2 499.5,456 499.5,398.9 297.9,486.2 297.9,534.8 499.5,622.1 	"/> <path fill="#FFFFFF" d="M544.3,660.5c5.6,0,9.7-1.1,12.6-3.6c2.7-2.4,5-5.8,6.3-10.3c1.4-4.3,3.2-10.3,5-18l56-231.1
		c2.9-10.8,4.2-18.4,4.5-22.6c0-5.6-1.8-10.1-5.4-13.3c-3.6-3.1-8.5-4.7-15.3-4.7c-7.9,0-13.1,2.3-15.8,6.8
		c-2.4,4.5-5.4,12.8-8.3,25.2l-56,231.1c-2.7,12.2-4.1,19.8-4.1,23C523.8,654.7,530.6,660.5,544.3,660.5z"/> <polygon fill="#FFFFFF" points="854.1,486.7 652.5,399.6 652.5,455.8 793.3,510.3 652.5,565.6 652.5,622.3 854.1,534.5 	"/> <path fill="#FFFFFF" d="M983.9,73.1H168.1c-30.6,0-55.6,25-55.6,55.6v704.5c0,30.6,25,55.6,55.6,55.6h815.8
		c30.8,0,55.6-25,55.6-55.6V128.6C1039.5,98,1014.5,73.1,983.9,73.1z M946.8,110.3c20.5,0,37.1,16.6,37.1,37.1
		c0,20.4-16.6,37.1-37.1,37.1s-37.1-16.6-37.1-37.1C909.7,126.9,926.4,110.3,946.8,110.3z M844.9,110.2c20.5,0,37.1,16.6,37.1,37.1
		c0,20.5-16.7,37.1-37.1,37.1s-37.1-16.6-37.1-37.1C807.8,126.8,824.4,110.2,844.9,110.2z M743,110.2c20.5,0,37.1,16.6,37.1,37.1
		c0,20.5-16.7,37.1-37.1,37.1c-20.5,0-37.1-16.6-37.1-37.1C705.9,126.8,722.5,110.2,743,110.2z M983.9,833.3H168.1v-612h815.8V833.3
		z"/> </g> </symbol><symbol viewBox="0 0 1152 1152" id="svg-defs-svg-defs-svg-defs-svg-defs-svg-defs-shape-menu"> <g> <rect x="168" y="248" fill="#FFFFFF" width="816" height="134"/> <circle fill="#FFFFFF" cx="168" cy="315" r="67"/> <circle fill="#FFFFFF" cx="976" cy="315" r="67"/> </g> <g> <rect x="172" y="524" fill="#FFFFFF" width="816" height="134"/> <circle fill="#FFFFFF" cx="172" cy="591" r="67"/> <circle fill="#FFFFFF" cx="980" cy="591" r="67"/> </g> <g> <rect x="172" y="801" fill="#FFFFFF" width="816" height="134"/> <circle fill="#FFFFFF" cx="172" cy="868" r="67"/> <circle fill="#FFFFFF" cx="980" cy="868" r="67"/> </g> </symbol><symbol viewBox="0 0 1152 1152" id="svg-defs-svg-defs-svg-defs-svg-defs-svg-defs-shape-pencil"> <path fill="#231F20" d="M455.7,821.9l382.1-382.1l-53.1-53.1l0.2-0.2l-19.1-19.1l-0.2,0.2l-52.9-52.9L330.5,697.1l0.2,0.2l-0.4-0.1
	L307.9,844l147.6-22l0,0l0,0l0.2,0L455.7,821.9z M799.6,439.8L455.4,783.9L421.5,750l344.2-344.1L799.6,439.8z M712.8,353l33.8,33.8
	L402.4,730.9l-33.8-33.8L712.8,353z M359.2,809.1L343,792.9l11.1-72.2l77.6,77.6L359.2,809.1z"/> </symbol><symbol viewBox="0 0 100 100" id="svg-defs-svg-defs-svg-defs-svg-defs-svg-defs-shape-svg-defs"><symbol viewBox="-319 321 512 512" id="svg-defs-svg-defs-svg-defs-svg-defs-svg-defs-svg-defs-shape-camera"> <g> <path fill="#231F20" d="M111.4,468H43.9L3.5,427.2c0,0-0.2-0.2-0.3-0.2L3,426.8c-6-6-14.1-9.8-23.3-9.8h-84
		c-9.8,0-18.5,4.2-24.6,10.9v0.1l-39.5,40h-69c-18.6,0-33.6,14.6-33.6,33.2v202.1c0,18.6,15,33.7,33.6,33.7h348.8
		c18.5,0,33.6-15.1,33.6-33.7V501.2C145,482.6,129.9,468,111.4,468z M-63,686.5c-50.9,0-92.4-41.6-92.4-92.6
		c0-51.1,41.5-92.6,92.4-92.6c51,0,92.4,41.5,92.4,92.6C29.4,644.9-12,686.5-63,686.5z M105.1,521.5c-7.7,0-14-6.3-14-14.1
		c0-7.8,6.3-14.1,14-14.1s14,6.3,14,14.1C119.1,515.2,112.8,521.5,105.1,521.5z"/> <path d="M-63,523.9c-38.6,0-69.8,31.3-69.8,70c0,38.6,31.2,70,69.8,70c38.5,0,69.8-31.3,69.8-70C6.8,555.2-24.5,523.9-63,523.9z"/> </g> </symbol><symbol viewBox="0 0 1152 1152" id="svg-defs-svg-defs-svg-defs-svg-defs-svg-defs-svg-defs-shape-code"> <g> <polygon fill="#FFFFFF" points="499.5,565.4 359.1,510.2 499.5,456 499.5,398.9 297.9,486.2 297.9,534.8 499.5,622.1 	"/> <path fill="#FFFFFF" d="M544.3,660.5c5.6,0,9.7-1.1,12.6-3.6c2.7-2.4,5-5.8,6.3-10.3c1.4-4.3,3.2-10.3,5-18l56-231.1
		c2.9-10.8,4.2-18.4,4.5-22.6c0-5.6-1.8-10.1-5.4-13.3c-3.6-3.1-8.5-4.7-15.3-4.7c-7.9,0-13.1,2.3-15.8,6.8
		c-2.4,4.5-5.4,12.8-8.3,25.2l-56,231.1c-2.7,12.2-4.1,19.8-4.1,23C523.8,654.7,530.6,660.5,544.3,660.5z"/> <polygon fill="#FFFFFF" points="854.1,486.7 652.5,399.6 652.5,455.8 793.3,510.3 652.5,565.6 652.5,622.3 854.1,534.5 	"/> <path fill="#FFFFFF" d="M983.9,73.1H168.1c-30.6,0-55.6,25-55.6,55.6v704.5c0,30.6,25,55.6,55.6,55.6h815.8
		c30.8,0,55.6-25,55.6-55.6V128.6C1039.5,98,1014.5,73.1,983.9,73.1z M946.8,110.3c20.5,0,37.1,16.6,37.1,37.1
		c0,20.4-16.6,37.1-37.1,37.1s-37.1-16.6-37.1-37.1C909.7,126.9,926.4,110.3,946.8,110.3z M844.9,110.2c20.5,0,37.1,16.6,37.1,37.1
		c0,20.5-16.7,37.1-37.1,37.1s-37.1-16.6-37.1-37.1C807.8,126.8,824.4,110.2,844.9,110.2z M743,110.2c20.5,0,37.1,16.6,37.1,37.1
		c0,20.5-16.7,37.1-37.1,37.1c-20.5,0-37.1-16.6-37.1-37.1C705.9,126.8,722.5,110.2,743,110.2z M983.9,833.3H168.1v-612h815.8V833.3
		z"/> </g> </symbol><symbol viewBox="0 0 1152 1152" id="svg-defs-svg-defs-svg-defs-svg-defs-svg-defs-svg-defs-shape-menu"> <g> <rect x="168" y="248" fill="#FFFFFF" width="816" height="134"/> <circle fill="#FFFFFF" cx="168" cy="315" r="67"/> <circle fill="#FFFFFF" cx="976" cy="315" r="67"/> </g> <g> <rect x="172" y="524" fill="#FFFFFF" width="816" height="134"/> <circle fill="#FFFFFF" cx="172" cy="591" r="67"/> <circle fill="#FFFFFF" cx="980" cy="591" r="67"/> </g> <g> <rect x="172" y="801" fill="#FFFFFF" width="816" height="134"/> <circle fill="#FFFFFF" cx="172" cy="868" r="67"/> <circle fill="#FFFFFF" cx="980" cy="868" r="67"/> </g> </symbol><symbol viewBox="0 0 1152 1152" id="svg-defs-svg-defs-svg-defs-svg-defs-svg-defs-svg-defs-shape-pencil"> <path fill="#231F20" d="M455.7,821.9l382.1-382.1l-53.1-53.1l0.2-0.2l-19.1-19.1l-0.2,0.2l-52.9-52.9L330.5,697.1l0.2,0.2l-0.4-0.1
	L307.9,844l147.6-22l0,0l0,0l0.2,0L455.7,821.9z M799.6,439.8L455.4,783.9L421.5,750l344.2-344.1L799.6,439.8z M712.8,353l33.8,33.8
	L402.4,730.9l-33.8-33.8L712.8,353z M359.2,809.1L343,792.9l11.1-72.2l77.6,77.6L359.2,809.1z"/> </symbol><symbol viewBox="0 0 100 100" id="svg-defs-svg-defs-svg-defs-svg-defs-svg-defs-svg-defs-shape-svg-defs"><symbol viewBox="0 0 512 512" id="svg-defs-svg-defs-svg-defs-svg-defs-svg-defs-svg-defs-svg-defs-shape-camera"> <g> <path d="M430.4,147h-67.5l-40.4-40.8c0,0-0.2-0.2-0.3-0.2l-0.2-0.2v0c-6-6-14.1-9.8-23.3-9.8h-84c-9.8,0-18.5,4.2-24.6,10.9l0,0.1
		l-39.5,40H81.6C63,147,48,161.6,48,180.2v202.1c0,18.6,15,33.7,33.6,33.7h348.8c18.5,0,33.6-15.1,33.6-33.7V180.2
		C464,161.6,448.9,147,430.4,147z M256,365.5c-50.9,0-92.4-41.6-92.4-92.6c0-51.1,41.5-92.6,92.4-92.6c51,0,92.4,41.5,92.4,92.6
		C348.4,323.9,307,365.5,256,365.5z M424.1,200.5c-7.7,0-14-6.3-14-14.1s6.3-14.1,14-14.1c7.7,0,14,6.3,14,14.1
		S431.8,200.5,424.1,200.5z"/> <path d="M256,202.9c-38.6,0-69.8,31.3-69.8,70c0,38.6,31.2,70,69.8,70c38.5,0,69.8-31.3,69.8-70C325.8,234.2,294.5,202.9,256,202.9
		z"/> </g> </symbol><symbol viewBox="0 0 1152 1152" id="svg-defs-svg-defs-svg-defs-svg-defs-svg-defs-svg-defs-svg-defs-shape-code"> <g> <g> <path fill="#FFFFFF" d="M499.5,565.4v56.7l-201.6-87.3v-48.6l201.6-87.3V456l-140.4,54.2L499.5,565.4z"/> <path fill="#FFFFFF" d="M624.2,397.5l-56,231.1c-1.8,7.7-3.6,13.7-5,18c-1.3,4.5-3.6,7.9-6.3,10.3c-2.9,2.5-7,3.6-12.6,3.6
			c-13.7,0-20.5-5.8-20.5-17.5c0-3.2,1.4-10.8,4.1-23l56-231.1c2.9-12.4,5.9-20.7,8.3-25.2c2.7-4.5,7.9-6.8,15.8-6.8
			c6.8,0,11.7,1.6,15.3,4.7c3.6,3.2,5.4,7.7,5.4,13.3C628.4,379.1,627.1,386.7,624.2,397.5z"/> <path fill="#FFFFFF" d="M854.1,534.5l-201.6,87.8v-56.7l140.8-55.3l-140.8-54.5v-56.2l201.6,87.1V534.5z"/> </g> <path fill="#FFFFFF" d="M983.9,73.1H168.1c-30.6,0-55.6,25-55.6,55.6v704.5c0,30.6,25,55.6,55.6,55.6h815.8
		c30.8,0,55.6-25,55.6-55.6V128.6C1039.5,98,1014.5,73.1,983.9,73.1z M844.9,110.2c20.5,0,37.1,16.6,37.1,37.1s-16.7,37.1-37.1,37.1
		s-37.1-16.6-37.1-37.1S824.4,110.2,844.9,110.2z M743,110.2c20.5,0,37.1,16.6,37.1,37.1s-16.7,37.1-37.1,37.1
		c-20.5,0-37.1-16.6-37.1-37.1S722.5,110.2,743,110.2z M983.9,833.3H168.1v-612h815.8V833.3L983.9,833.3z M946.8,184.5
		c-20.5,0-37.1-16.6-37.1-37.1s16.7-37.1,37.1-37.1c20.5,0,37.1,16.6,37.1,37.1C983.9,167.8,967.3,184.5,946.8,184.5z"/> </g> </symbol><symbol viewBox="0 0 1152 1152" id="svg-defs-svg-defs-svg-defs-svg-defs-svg-defs-svg-defs-svg-defs-shape-menu"> <g> <rect x="168" y="248" fill="#FFFFFF" width="816" height="134"/> <circle fill="#FFFFFF" cx="168" cy="315" r="67"/> <circle fill="#FFFFFF" cx="976" cy="315" r="67"/> </g> <g> <rect x="172" y="524" fill="#FFFFFF" width="816" height="134"/> <circle fill="#FFFFFF" cx="172" cy="591" r="67"/> <circle fill="#FFFFFF" cx="980" cy="591" r="67"/> </g> <g> <rect x="172" y="801" fill="#FFFFFF" width="816" height="134"/> <circle fill="#FFFFFF" cx="172" cy="868" r="67"/> <circle fill="#FFFFFF" cx="980" cy="868" r="67"/> </g> </symbol><symbol viewBox="0 0 1152 1152" id="svg-defs-svg-defs-svg-defs-svg-defs-svg-defs-svg-defs-svg-defs-shape-pencil"> <polyline fill="none" stroke="#231F20" stroke-width="27" points="343.7,699.3 324,828 453.7,808.7 "/> <line fill="none" stroke="#231F20" stroke-width="27" x1="332.5" y1="801.5" x2="359" y2="828"/> <line fill="none" stroke="#231F20" stroke-width="27" x1="775.4" y1="377" x2="401.9" y2="750.5"/> <g> <path fill="#231F20" d="M712.8,353l86.8,86.8L455.4,783.9l-86.8-86.8L712.8,353 M712.8,314.8L330.5,697.1l125,125l382.3-382.3
		L712.8,314.8L712.8,314.8z"/> </g> </symbol><symbol viewBox="0 0 100 100" id="svg-defs-svg-defs-svg-defs-svg-defs-svg-defs-svg-defs-svg-defs-shape-svg-defs"/></symbol></symbol></symbol></symbol></symbol></symbol></symbol></svg>